<?xml version="1.0" encoding="utf-8"?><svg xmlns="http://www.w3.org/2000/svg" xmlns:xlink="http://www.w3.org/1999/xlink"><symbol viewBox="0 0 20.633 20.633" id="arrow-bottom" xmlns="http://www.w3.org/2000/svg"><path d="M10.79 15.617l9.648-9.646c.133-.131.195-.301.195-.473s-.062-.344-.195-.473l-.012-.012a.66.66 0 0 0-.472-.195h-4.682a.656.656 0 0 0-.473.195l-4.48 4.479-4.48-4.479a.672.672 0 0 0-.473-.195H.684a.66.66 0 0 0-.475.195l-.013.012A.657.657 0 0 0 0 5.498a.66.66 0 0 0 .196.473l9.648 9.646a.666.666 0 0 0 .946 0z" fill="#FFF"/></symbol><symbol viewBox="0 0 240.823 240.823" id="breadcrumb" xmlns="http://www.w3.org/2000/svg"><path d="M183.189 111.816L74.892 3.555c-4.752-4.74-12.451-4.74-17.215 0-4.752 4.74-4.752 12.439 0 17.179l99.707 99.671-99.695 99.671c-4.752 4.74-4.752 12.439 0 17.191 4.752 4.74 12.463 4.74 17.215 0l108.297-108.261c4.68-4.691 4.68-12.511-.012-17.19z" fill="#5f656d"/></symbol><symbol viewBox="0 0 512 512" id="brickwall" xmlns="http://www.w3.org/2000/svg"><path d="M361.739 155.826H244.87v83.478h133.565v-66.783c0-9.22-7.475-16.695-16.696-16.695zm-217.043 116.87h133.565v83.478H144.696zM0 155.826h211.478v83.478H0zm211.478 233.739h166.956v83.478H211.478zM0 272.696h111.304v83.478H0zM294.957 38.957H144.696v83.478h166.956V55.652c0-9.222-7.478-16.695-16.695-16.695zm116.869 350.608v83.478h83.478c9.217 0 16.696-7.473 16.696-16.696v-66.783H411.826zM0 389.565v66.783c0 9.223 7.479 16.696 16.696 16.696h161.391v-83.478H0zM16.696 38.957C7.479 38.957 0 46.43 0 55.652v66.783h111.304V38.957H16.696zm478.608 233.739H311.652v83.478H512v-66.783c0-9.22-7.475-16.695-16.696-16.695z" fill="#FFF"/></symbol><symbol viewBox="0 0 47 47.001" id="calc" xmlns="http://www.w3.org/2000/svg"><path d="M39.524 0H7.478c-1.18 0-2.136.957-2.136 2.137v42.727c0 1.18.957 2.137 2.136 2.137h32.046c1.18 0 2.136-.957 2.136-2.137V2.137C41.66.957 40.704 0 39.524 0zm-2.137 4.272v6.409H9.614V4.272h27.773zM9.614 42.729V14.954h27.773v27.772H9.614v.003z"/><path d="M17.253 16.844h-4.435c-.59 0-1.068.479-1.068 1.068v4.438c0 .59.479 1.068 1.068 1.068h4.435c.59 0 1.068-.479 1.068-1.068v-4.438a1.065 1.065 0 0 0-1.068-1.068zm8.464 0h-4.434c-.59 0-1.068.479-1.068 1.068v4.438c0 .59.478 1.068 1.068 1.068h4.434c.59 0 1.068-.479 1.068-1.068v-4.438a1.067 1.067 0 0 0-1.068-1.068zm8.465 0h-4.435c-.59 0-1.067.479-1.067 1.068v4.438c0 .59.478 1.068 1.067 1.068h4.435c.59 0 1.068-.479 1.068-1.068v-4.438c0-.591-.478-1.068-1.068-1.068zm-16.929 8.711h-4.435c-.59 0-1.068.478-1.068 1.067v4.438c0 .59.479 1.067 1.068 1.067h4.435c.59 0 1.068-.478 1.068-1.067v-4.438a1.064 1.064 0 0 0-1.068-1.067zm8.464 0h-4.434c-.59 0-1.068.478-1.068 1.067v4.438c0 .59.478 1.067 1.068 1.067h4.434c.59 0 1.068-.478 1.068-1.067v-4.438a1.066 1.066 0 0 0-1.068-1.067zm-8.464 8.711h-4.435c-.59 0-1.068.478-1.068 1.066v4.438c0 .592.479 1.068 1.068 1.068h4.435c.59 0 1.068-.479 1.068-1.068v-4.438a1.064 1.064 0 0 0-1.068-1.066zm8.464 0h-4.434c-.59 0-1.068.478-1.068 1.066v4.438c0 .592.478 1.068 1.068 1.068h4.434c.59 0 1.068-.479 1.068-1.068v-4.438a1.065 1.065 0 0 0-1.068-1.066zm8.465-8.711h-4.435c-.59 0-1.067.478-1.067 1.067V39.77c0 .592.478 1.068 1.067 1.068h4.435c.59 0 1.068-.479 1.068-1.068V26.622c0-.591-.478-1.067-1.068-1.067z"/></symbol><symbol viewBox="0 0 512 512" id="cart" xmlns="http://www.w3.org/2000/svg"><g fill="#FFF"><path d="M456.313 85.333h-20.677a10.693 10.693 0 0 0-8.063 3.677 10.683 10.683 0 0 0-2.5 8.5c1.083 7.583 1.594 13.885 1.594 19.823C426.667 193.792 364.458 256 288 256s-138.667-62.208-138.667-138.667c0-5.938.51-12.24 1.594-19.823a10.682 10.682 0 0 0-2.5-8.5 10.691 10.691 0 0 0-8.063-3.677h-24.758l-8.665-27.698a21.341 21.341 0 0 0-20.368-14.969H32c-5.891 0-10.667 4.775-10.667 10.667v21.333c0 5.891 4.776 10.667 10.667 10.667h38.896l67.431 215.507-31.66 31.66c-12.25 12.24-15.875 30.49-9.25 46.49s22.104 26.344 39.417 26.344h300.5c5.891 0 10.667-4.776 10.667-10.667v-21.333c0-5.892-4.776-10.667-10.667-10.667h-300.5L179.5 320h194.854c16.448 0 31.604-9.615 38.615-24.5l74.438-158.177a34.636 34.636 0 0 0 3.26-14.615v-3.021c0-18.947-15.407-34.354-34.354-34.354z"/><path d="M288 234.667c64.698 0 117.333-52.635 117.333-117.333S352.698 0 288 0 170.667 52.635 170.667 117.333 223.302 234.667 288 234.667zm-42.667-128h32v-32C277.333 68.771 282.104 64 288 64s10.667 4.771 10.667 10.667v32h32a10.66 10.66 0 0 1 10.667 10.667 10.66 10.66 0 0 1-10.667 10.667h-32v32c0 5.896-4.771 10.667-10.667 10.667s-10.667-4.771-10.667-10.667v-32h-32a10.66 10.66 0 0 1-10.667-10.667 10.662 10.662 0 0 1 10.667-10.667z"/><circle cx="149.333" cy="469.333" r="42.667"/><circle cx="405.333" cy="469.333" r="42.667"/></g></symbol><symbol viewBox="0 0 45.701 45.7" id="check" xmlns="http://www.w3.org/2000/svg"><path d="M20.687 38.332a5.308 5.308 0 0 1-7.505 0L1.554 26.704A5.306 5.306 0 1 1 9.059 19.2l6.928 6.927a1.344 1.344 0 0 0 1.896 0L36.642 7.368a5.308 5.308 0 0 1 7.505 7.504l-23.46 23.46z"/></symbol><symbol viewBox="0 0 490.434 490.433" id="check-g" xmlns="http://www.w3.org/2000/svg"><path d="M472.003 58.36l-13.132-11.282c-21.798-18.732-54.554-16.644-73.799 4.697L165.39 295.359l-66.312-57.112c-21.775-18.753-54.536-16.707-73.804 4.611l-11.611 12.848a52.934 52.934 0 0 0-13.595 38.18 52.938 52.938 0 0 0 17.402 36.6l121.553 111.311a52.936 52.936 0 0 0 76.355-4.057l262.245-304.71a52.915 52.915 0 0 0 12.661-38.496 52.92 52.92 0 0 0-18.281-36.174z" fill="#5bad00"/></symbol><symbol viewBox="0 0 490.434 490.433" id="check-y" xmlns="http://www.w3.org/2000/svg"><path d="M472.003 58.36l-13.132-11.282c-21.798-18.732-54.554-16.644-73.799 4.697L165.39 295.359l-66.312-57.112c-21.775-18.753-54.536-16.707-73.804 4.611l-11.611 12.848a52.934 52.934 0 0 0-13.595 38.18 52.938 52.938 0 0 0 17.402 36.6l121.553 111.311a52.936 52.936 0 0 0 76.355-4.057l262.245-304.71a52.915 52.915 0 0 0 12.661-38.496 52.92 52.92 0 0 0-18.281-36.174z" fill="#d7af47"/></symbol><symbol viewBox="0 0 97.16 97.16" id="clock" xmlns="http://www.w3.org/2000/svg"><path d="M48.58 0C21.793 0 0 21.793 0 48.58s21.793 48.58 48.58 48.58 48.58-21.793 48.58-48.58S75.367 0 48.58 0zm0 86.823c-21.087 0-38.244-17.155-38.244-38.243S27.493 10.337 48.58 10.337 86.824 27.492 86.824 48.58 69.667 86.823 48.58 86.823z"/><path d="M73.898 47.08H52.066V20.83a4 4 0 0 0-8 0v30.25a4 4 0 0 0 4 4h25.832a4 4 0 0 0 0-8z"/></symbol><symbol viewBox="0 0 215.059 215.059" id="consultant" xmlns="http://www.w3.org/2000/svg"><path d="M195.083 87.607h-3.046v-3.1C192.037 37.91 154.127 0 107.529 0S23.022 37.91 23.022 84.508v3.1h-3.046C9.263 87.608.547 96.324.547 107.037v28.418c0 10.713 8.716 19.429 19.429 19.429h10.832a5 5 0 0 0 4.592-3.025c12.827 25.526 31.491 42.404 32.726 43.504a3.537 3.537 0 0 0 2.355.896c.005 0 .01.002.017 0a3.54 3.54 0 0 0 3.288-4.855c-.091-.325-.25-.907-.453-1.701 8.727 10.956 18.093 17.435 25.203 21.154a37.079 37.079 0 0 0 17.123 4.202c5.948 0 11.87-1.453 17.124-4.202 6.789-3.552 15.632-9.637 24.013-19.713 15.847-5.774 27.922-19.463 31.419-36.26h6.868c10.713 0 19.429-8.716 19.429-19.429v-28.418c0-10.714-8.716-19.43-19.429-19.43zM39.128 54.999C50.581 28.554 76.924 10 107.529 10c33.736 0 62.29 22.545 71.431 53.354-3.987-3.835-8.345-6.03-12.184-6.814-2.719-7.75-6.724-12.557-7.607-13.555-1.674-2.251-17.261-21.976-49.198-21.976-10.94 0-22.631 2.372-34.745 7.051-8.642 3.337-24.25 11.143-36.098 26.939zm90.373 149.585a29.973 29.973 0 0 1-13.842 3.395c-4.81 0-9.596-1.174-13.841-3.395-8.704-4.554-21.143-13.682-30.969-31.305-.195-.349-.375-.709-.565-1.062-1.309-13.499-.375-30.599 10.346-39.599 8.302-6.969 22.273-10.214 35.784-13.352 16.917-3.929 34.311-7.977 43.894-19.429 3.012 2.821 5.549 6.412 6.556 10.894 3.436 15.293-.973 28.398-1.036 28.582a3.542 3.542 0 0 0 3.344 4.704c.573 0 1.15-.139 1.677-.423a17 17 0 0 0 .233-.131c-2.222 10.373-5.576 20.786-10.611 29.816a90.077 90.077 0 0 1-4.677 7.485 39.031 39.031 0 0 1-15.82 3.339h-5.176c-2.037-5.454-7.284-9.356-13.44-9.356h-13.671c-7.916 0-14.356 6.44-14.356 14.356s6.44 14.356 14.356 14.356h13.671c6.156 0 11.404-3.902 13.44-9.356h5.176c1.525 0 3.033-.072 4.522-.208-5.402 5.018-10.662 8.422-14.995 10.689zm40.451-34.422c4.514-9.929 7.435-20.798 9.298-31.3v5.964c0 9.649-3.504 18.491-9.298 25.336z"/></symbol><symbol viewBox="0 0 512 512" id="contract" xmlns="http://www.w3.org/2000/svg"><path d="M498.791 161.127c-17.545-17.546-46.094-17.545-63.645.004l-45.128 45.166V87.426c0-12.02-4.681-23.32-13.181-31.819L334.412 13.18C325.913 4.68 314.612 0 302.592 0H45.018c-24.813 0-45 20.187-45 45v422c0 24.813 20.187 45 45 45h300c24.813 0 45-20.187 45-45V333.631L498.79 224.767c17.587-17.586 17.591-46.052.001-63.64zM300.019 30c2.834 0 8.295-.491 13.18 4.393l42.426 42.427c4.76 4.761 4.394 9.978 4.394 13.18h-60V30zm59.999 437c0 8.271-6.728 15-15 15h-300c-8.271 0-15-6.729-15-15V45c0-8.271 6.729-15 15-15h225v75c0 8.284 6.716 15 15 15h75v116.323l-44.256 44.293-21.203 21.204a15 15 0 0 0-3.624 5.863l-21.214 63.64a14.999 14.999 0 1 0 18.974 18.974l63.64-21.213a14.988 14.988 0 0 0 5.863-3.624l1.82-1.82V467zm-33.64-154.573l21.213 21.213-8.103 8.103-31.819 10.606 10.606-31.82 8.103-8.102zm42.422-.005l-21.213-21.213 72.105-72.166 21.213 21.213-72.105 72.166zm108.773-108.864l-15.463 15.476-21.213-21.213 15.468-15.481c5.852-5.849 15.366-5.848 21.214 0 5.847 5.85 5.878 15.333-.006 21.218z"/><path d="M285.018 150h-210c-8.284 0-15 6.716-15 15s6.716 15 15 15h210c8.284 0 15-6.716 15-15s-6.716-15-15-15zm-60 60h-150c-8.284 0-15 6.716-15 15s6.716 15 15 15h150c8.284 0 15-6.716 15-15s-6.716-15-15-15zm0 60h-150c-8.284 0-15 6.716-15 15s6.716 15 15 15h150c8.284 0 15-6.716 15-15s-6.716-15-15-15zm0 60h-150c-8.284 0-15 6.716-15 15s6.716 15 15 15h150c8.284 0 15-6.716 15-15s-6.716-15-15-15zm60 92h-90c-8.284 0-15 6.716-15 15s6.716 15 15 15h90c8.284 0 15-6.716 15-15s-6.716-15-15-15z"/></symbol><symbol viewBox="0 0 406.783 406.783" id="delivery" xmlns="http://www.w3.org/2000/svg"><path d="M127.12 256.572c-19.742 0-35.741 15.993-35.741 35.737 0 19.745 15.999 35.738 35.741 35.738 19.749 0 35.744-15.993 35.744-35.738 0-19.744-15.995-35.737-35.744-35.737zm0 51.274c-8.582 0-15.536-6.955-15.536-15.537 0-8.586 6.954-15.537 15.536-15.537 8.583 0 15.542 6.951 15.542 15.537 0 8.582-6.959 15.537-15.542 15.537zm188.468-51.274c-19.742 0-35.74 15.993-35.74 35.737 0 19.745 15.998 35.738 35.74 35.738 19.75 0 35.744-15.993 35.744-35.738 0-19.744-15.994-35.737-35.744-35.737zm0 51.274c-8.582 0-15.535-6.955-15.535-15.537 0-8.586 6.953-15.537 15.535-15.537 8.584 0 15.543 6.951 15.543 15.537 0 8.582-6.959 15.537-15.543 15.537zM167.329 146.759c0 5.008-4.098 9.105-9.105 9.105H32.579c-5.008 0-9.104-4.097-9.104-9.105v-5.463c0-5.007 4.097-9.104 9.104-9.104h125.645c5.008 0 9.105 4.097 9.105 9.104v5.463z"/><path d="M385.623 200.066c-13.105-3.407-20.604-5.549-25.75-15.487l-17.207-34.839c-5.148-9.938-18.518-18.07-29.707-18.07h-23.535s-3.166.066-3.166-3.12V99.331c0-11.327-6.41-20.595-20.045-20.595H74.405c-19.521 0-28.789 9.269-28.789 20.595v18.311s0 5.446 5.271 5.446h107.337c10.041 0 18.21 8.168 18.21 18.209v5.463c0 10.041-8.169 18.209-18.21 18.209H50.887s-5.271-.438-5.271 5.252v6.297c0 5.008 6.864 5.005 6.864 5.005h72.254c10.041 0 18.21 8.169 18.21 18.209v5.463c0 10.041-8.169 18.209-18.21 18.209H53.62s-8.004-.148-8.004 6.225v44.246c0 11.326 9.268 20.595 20.595 20.595h11.376c2.58 0 2.96-1.437 2.96-2.159 0-25.679 20.894-46.568 46.574-46.568 25.682 0 46.575 20.891 46.575 46.568 0 .725-.206 2.159 1.767 2.159h91.806c1.82 0 1.746-1.534 1.746-2.159 0-25.679 20.893-46.568 46.574-46.568s46.574 20.891 46.574 46.568c0 .725-.018 2.159 1.121 2.159h23.146c11.195 0 20.352-9.157 20.352-20.351v-38.664c.001-32.561-10.28-32.561-21.159-35.389zm-38.727-1.811h-57.928c-2.393 0-2.711-2.33-2.711-2.33V147.67s-.135-1.853 2.938-1.853h16.529c9.959 0 21.855 7.236 26.434 16.079l15.312 31a24.257 24.257 0 0 0 2.072 3.349c.544.728-.368 2.01-2.646 2.01z"/><path d="M133.838 205.195c0 5.008-4.097 9.105-9.104 9.105H9.104C4.096 214.3 0 210.203 0 205.195v-5.463c0-5.007 4.097-9.104 9.104-9.104h115.63c5.008 0 9.104 4.097 9.104 9.104v5.463z"/></symbol><symbol viewBox="0 0 96.124 96.123" id="facebook" xmlns="http://www.w3.org/2000/svg"><path d="M72.089.02L59.624 0C45.62 0 36.57 9.285 36.57 23.656v10.907H24.037a1.96 1.96 0 0 0-1.96 1.961v15.803a1.96 1.96 0 0 0 1.96 1.96H36.57v39.876a1.96 1.96 0 0 0 1.96 1.96h16.352a1.96 1.96 0 0 0 1.96-1.96V54.287h14.654a1.96 1.96 0 0 0 1.96-1.96l.006-15.803a1.963 1.963 0 0 0-1.961-1.961H56.842v-9.246c0-4.444 1.059-6.7 6.848-6.7l8.397-.003a1.96 1.96 0 0 0 1.959-1.96V1.98A1.96 1.96 0 0 0 72.089.02z"/></symbol><symbol viewBox="0 0 512 512" id="factory" xmlns="http://www.w3.org/2000/svg"><path d="M239.304 378.435h33.391v33.391h-33.391zm133.566 0h33.391v33.391H372.87zm-267.131 0h33.391v33.391h-33.391z"/><path d="M478.609 82.183V50.087C478.609 22.468 456.141 0 428.522 0H294.957c-21.772 0-40.337 13.956-47.229 33.391h-86.337c-27.619 0-50.087 22.468-50.087 50.087s22.468 50.087 50.087 50.087h133.565c21.772 0 40.337-13.956 47.229-33.391h33.41l-28.12 178.087h-46.954v-83.478c0-13.739-15.731-21.599-26.717-13.359l-106.848 80.141v-66.783c0-13.768-15.772-21.585-26.718-13.359L6.674 281.598A16.726 16.726 0 0 0 0 294.957v200.348C0 504.527 7.479 512 16.696 512h478.609c9.217 0 16.696-7.473 16.696-16.696V294.957c-.001-2.12-33.061-210.681-33.392-212.774zm-23.927 62.513h-52.321l7.03-44.522h38.261l7.03 44.522zM328.348 66.783c-9.217 0-16.696 7.473-16.696 16.696 0 9.206-7.49 16.696-16.696 16.696H161.391c-9.206 0-16.696-7.49-16.696-16.696s7.49-16.696 16.696-16.696h100.174c9.217 0 16.696-7.473 16.696-16.696 0-9.206 7.49-16.696 16.696-16.696h133.565c9.206 0 16.696 7.49 16.696 16.696v16.696h-116.87zM172.522 428.522c0 9.223-7.479 16.696-16.696 16.696H89.044c-9.217 0-16.696-7.473-16.696-16.696v-66.783c0-9.223 7.479-16.696 16.696-16.696h66.783c9.217 0 16.696 7.473 16.696 16.696v66.783zm133.565 0c0 9.223-7.479 16.696-16.696 16.696h-66.783c-9.217 0-16.696-7.473-16.696-16.696v-66.783c0-9.223 7.479-16.696 16.696-16.696h66.783c9.217 0 16.696 7.473 16.696 16.696v66.783zm133.565 0c0 9.223-7.479 16.696-16.696 16.696h-66.783c-9.217 0-16.696-7.473-16.696-16.696v-66.783c0-9.223 7.479-16.696 16.696-16.696h66.783c9.217 0 16.696 7.473 16.696 16.696v66.783zm-58.378-150.261l5.271-33.391h83.951l5.271 33.391h-94.493z"/></symbol><symbol viewBox="0 0 512 512" id="footer-contract" xmlns="http://www.w3.org/2000/svg"><path d="M331.015 119.993L331.007 0H60.992v512h390.015V120l-119.992-.007zm-205.02 31.986h170.003v30H125.995v-30zm259.008 270.015h-92.744v-30h92.744v30zm0-60.004H125.995v-30h259.008v30zm0-60.003H125.995v-30h259.008v30zm0-60.004H125.995v-30h259.008v30z" fill="#FFF"/><path fill="#FFF" d="M361.007 6.589l.003 83.408 81.761.003z"/></symbol><symbol viewBox="0 0 27.02 27.02" id="home" xmlns="http://www.w3.org/2000/svg"><g fill="#5f656d"><path d="M3.674 24.876s-.024.604.566.604l6.811-.008.01-5.581s-.096-.92.797-.92h2.826c1.056 0 .991.92.991.92l-.012 5.563h6.667c.749 0 .715-.752.715-.752V14.413l-9.396-8.358-9.975 8.358v10.463z"/><path d="M0 13.635s.847 1.561 2.694 0l11.038-9.338 10.349 9.28c2.138 1.542 2.939 0 2.939 0L13.732 1.54 0 13.635zm23.83-9.36h-2.662l.011 3.228 2.651 2.249z"/></g></symbol><symbol viewBox="0 0 23.625 23.625" id="info" xmlns="http://www.w3.org/2000/svg"><path d="M11.812 0C5.289 0 0 5.289 0 11.812s5.289 11.813 11.812 11.813 11.813-5.29 11.813-11.813S18.335 0 11.812 0zm2.459 18.307c-.608.24-1.092.422-1.455.548a3.838 3.838 0 0 1-1.262.189c-.736 0-1.309-.18-1.717-.539s-.611-.814-.611-1.367c0-.215.015-.435.045-.659a8.23 8.23 0 0 1 .147-.759l.761-2.688c.067-.258.125-.503.171-.731.046-.23.068-.441.068-.633 0-.342-.071-.582-.212-.717-.143-.135-.412-.201-.813-.201-.196 0-.398.029-.605.09-.205.063-.383.12-.529.176l.201-.828c.498-.203.975-.377 1.43-.521a4.225 4.225 0 0 1 1.29-.218c.731 0 1.295.178 1.692.53.395.353.594.812.594 1.376 0 .117-.014.323-.041.617a4.129 4.129 0 0 1-.152.811l-.757 2.68a7.582 7.582 0 0 0-.167.736 3.892 3.892 0 0 0-.073.626c0 .356.079.599.239.728.158.129.435.194.827.194.185 0 .392-.033.626-.097.232-.064.4-.121.506-.17l-.203.827zm-.134-10.878a1.807 1.807 0 0 1-1.275.492c-.496 0-.924-.164-1.28-.492a1.57 1.57 0 0 1-.533-1.193c0-.465.18-.865.533-1.196a1.812 1.812 0 0 1 1.28-.497c.497 0 .923.165 1.275.497.353.331.53.731.53 1.196 0 .467-.177.865-.53 1.193z" fill="#d7af47"/></symbol><symbol viewBox="0 0 169.063 169.063" id="instagram" xmlns="http://www.w3.org/2000/svg"><path d="M122.406 0H46.654C20.929 0 0 20.93 0 46.655v75.752c0 25.726 20.929 46.655 46.654 46.655h75.752c25.727 0 46.656-20.93 46.656-46.655V46.655C169.063 20.93 148.133 0 122.406 0zm31.657 122.407c0 17.455-14.201 31.655-31.656 31.655H46.654C29.2 154.063 15 139.862 15 122.407V46.655C15 29.201 29.2 15 46.654 15h75.752c17.455 0 31.656 14.201 31.656 31.655v75.752z"/><path d="M84.531 40.97c-24.021 0-43.563 19.542-43.563 43.563 0 24.02 19.542 43.561 43.563 43.561s43.563-19.541 43.563-43.561c0-24.021-19.542-43.563-43.563-43.563zm0 72.123c-15.749 0-28.563-12.812-28.563-28.561 0-15.75 12.813-28.563 28.563-28.563s28.563 12.813 28.563 28.563c0 15.749-12.814 28.561-28.563 28.561zm45.39-84.842c-2.89 0-5.729 1.17-7.77 3.22a11.053 11.053 0 0 0-3.23 7.78c0 2.891 1.18 5.73 3.23 7.78 2.04 2.04 4.88 3.22 7.77 3.22 2.9 0 5.73-1.18 7.78-3.22 2.05-2.05 3.22-4.89 3.22-7.78 0-2.9-1.17-5.74-3.22-7.78-2.04-2.05-4.88-3.22-7.78-3.22z"/></symbol><symbol viewBox="0 0 492 492" id="left-arrow" xmlns="http://www.w3.org/2000/svg"><path d="M198.608 246.104L382.664 62.04c5.068-5.056 7.856-11.816 7.856-19.024 0-7.212-2.788-13.968-7.856-19.032l-16.128-16.12C361.476 2.792 354.712 0 347.504 0s-13.964 2.792-19.028 7.864L109.328 227.008c-5.084 5.08-7.868 11.868-7.848 19.084-.02 7.248 2.76 14.028 7.848 19.112l218.944 218.932c5.064 5.072 11.82 7.864 19.032 7.864 7.208 0 13.964-2.792 19.032-7.864l16.124-16.12c10.492-10.492 10.492-27.572 0-38.06L198.608 246.104z" fill="#FFF"/></symbol><symbol viewBox="0 0 270 370" id="logo" xmlns="http://www.w3.org/2000/svg"><path d="M0 0v72h72V0H0zm64 64H8V8h56v56zM92 0v72h72V0H92zm64 64h-56V8h56v56zM0 92v72h72V92H0zm64 64H8v-56h56v56zm28-64v72h72V92H92zm64 64h-56v-56h56v56z" fill="#C93"/><path d="M47.602 258.395h-5.695V245H6.188v13.395H.492v-18.809h3.973c3.609-6.07 6.697-13.453 9.264-22.148s3.99-16.641 4.271-23.836h23.098v45.984h6.504v18.809zm-12.481-18.809V198.98H23.414c-.422 5.672-1.84 12.486-4.254 20.443-2.414 7.957-5.227 14.678-8.438 20.162h24.399zM79.066 245l-1.16-5.484h-.281c-1.922 2.414-3.838 4.049-5.748 4.904-1.911.855-4.295 1.283-7.154 1.283-3.82 0-6.815-.984-8.982-2.953-2.168-1.969-3.252-4.77-3.252-8.402 0-7.781 6.223-11.859 18.668-12.234l6.539-.211v-2.391c0-3.023-.65-5.256-1.951-6.697s-3.381-2.162-6.24-2.162c-3.211 0-6.844.984-10.898 2.953l-1.793-4.465c1.898-1.031 3.978-1.84 6.24-2.426a27.025 27.025 0 0 1 6.803-.879c4.593 0 7.998 1.02 10.213 3.059s3.322 5.309 3.322 9.809V245h-4.326zm-13.183-4.113c3.633 0 6.486-.996 8.561-2.988s3.111-4.781 3.111-8.367v-3.48l-5.836.246c-4.641.164-7.986.885-10.037 2.162-2.051 1.277-3.076 3.264-3.076 5.959 0 2.109.638 3.715 1.916 4.816 1.277 1.101 3.063 1.652 5.361 1.652zm47.461 4.816c-2.508 0-4.799-.463-6.873-1.389s-3.814-2.35-5.221-4.271h-.422c.281 2.25.422 4.383.422 6.398v15.855h-5.836v-55.828h4.746l.809 5.273h.281c1.5-2.109 3.246-3.633 5.238-4.57s4.277-1.406 6.855-1.406c5.109 0 9.053 1.746 11.83 5.238s4.166 8.391 4.166 14.695c0 6.328-1.412 11.244-4.236 14.748s-6.744 5.257-11.759 5.257zm-.844-34.98c-3.938 0-6.785 1.09-8.543 3.27s-2.66 5.648-2.707 10.406v1.301c0 5.414.902 9.287 2.707 11.619s4.699 3.498 8.684 3.498c3.328 0 5.936-1.348 7.822-4.043s2.83-6.41 2.83-11.145c0-4.805-.943-8.49-2.83-11.057s-4.541-3.849-7.963-3.849zM177.398 245h-7.242l-23.766-26.051V245h-5.977v-51.398h5.977v24.891l23.168-24.891h6.855l-22.746 24.961L177.398 245zm29.883 0l-1.16-5.484h-.281c-1.922 2.414-3.838 4.049-5.748 4.904s-4.295 1.283-7.154 1.283c-3.82 0-6.814-.984-8.982-2.953s-3.252-4.77-3.252-8.402c0-7.781 6.223-11.859 18.668-12.234l6.539-.211v-2.391c0-3.023-.65-5.256-1.951-6.697s-3.381-2.162-6.24-2.162c-3.211 0-6.844.984-10.898 2.953l-1.793-4.465c1.898-1.031 3.979-1.84 6.24-2.426s4.529-.879 6.803-.879c4.594 0 7.998 1.02 10.213 3.059s3.322 5.309 3.322 9.809V245h-4.326zm-13.183-4.113c3.633 0 6.486-.996 8.561-2.988s3.111-4.781 3.111-8.367v-3.48l-5.836.246c-4.641.164-7.986.885-10.037 2.162s-3.076 3.264-3.076 5.959c0 2.109.639 3.715 1.916 4.816s3.064 1.652 5.361 1.652zm49.535-1.512l1.09-3.27 1.512-4.148 10.441-25.418h7.418V245h-5.168v-31.816l-.703 2.039-2.039 5.379-9.95 24.398h-4.887l-9.949-24.469c-1.242-3.141-2.098-5.59-2.566-7.348V245h-5.203v-38.461h7.137l10.09 24.434c1.007 2.578 1.933 5.379 2.777 8.402z" fill="#FFF"/><path d="M8.691 294.402c-1.883 0-3.369.627-4.459 1.881s-1.635 2.971-1.635 5.15c0 2.242.525 3.975 1.576 5.197s2.549 1.834 4.494 1.834c1.195 0 2.559-.215 4.09-.645v1.746c-1.188.445-2.652.668-4.395.668-2.523 0-4.471-.766-5.842-2.297s-2.057-3.707-2.057-6.527c0-1.766.33-3.313.99-4.641s1.613-2.352 2.859-3.07 2.713-1.078 4.4-1.078c1.797 0 3.367.328 4.711.984l-.844 1.711c-1.294-.608-2.591-.913-3.888-.913zM24.169 310h-1.992v-15.363h-5.426v-1.77h12.844v1.77h-5.426V310zm11.482.234c-.867 0-1.629-.117-2.285-.352v-1.945a5.23 5.23 0 0 0 2.215.504c.859 0 1.549-.197 2.068-.592s1.037-1.135 1.553-2.221l-6.668-12.762h2.203l5.063 9.738c.195.383.348.758.457 1.125h.094c.219-.656.371-1.07.457-1.242l4.207-9.621h2.109l-5.473 12.258c-.656 1.461-1.248 2.523-1.775 3.188s-1.121 1.15-1.781 1.459-1.475.463-2.444.463zm29.741 4.231h-1.898V310H51.587v4.465h-1.898v-6.27h1.324c1.203-2.023 2.232-4.484 3.088-7.383s1.33-5.547 1.424-7.945h7.699v15.328h2.168v6.27zm-4.161-6.27V294.66h-3.902c-.141 1.891-.613 4.162-1.418 6.814s-1.742 4.893-2.813 6.721h8.133zm9.467-15.328h1.863v9.527c0 1.758-.055 3.348-.164 4.77h.094l9.609-14.297h2.18V310h-1.875v-9.434c0-1.57.066-3.219.199-4.945h-.105L72.877 310h-2.18v-17.133zm25.755 9.985L91.965 310H89.61l4.805-7.488c-1.258-.398-2.172-1.002-2.742-1.811s-.855-1.83-.855-3.064c0-1.531.529-2.709 1.588-3.533s2.662-1.236 4.811-1.236h4.711V310h-1.992v-7.148h-3.483zm3.481-8.262h-2.66c-1.43 0-2.516.246-3.258.738s-1.113 1.293-1.113 2.402c0 2.273 1.48 3.41 4.441 3.41h2.59v-6.55zM1.379 321.667h1.863v9.527c0 1.758-.055 3.348-.164 4.77h.094l9.609-14.297h2.18V338.8h-1.875v-9.434c0-1.57.066-3.219.199-4.945h-.105L3.559 338.8h-2.18v-17.133zm28.005 1.535c-1.883 0-3.369.627-4.459 1.881s-1.635 2.971-1.635 5.15c0 2.242.525 3.975 1.576 5.197s2.549 1.834 4.494 1.834c1.195 0 2.559-.215 4.09-.645v1.746c-1.188.445-2.652.668-4.395.668-2.523 0-4.471-.766-5.842-2.297s-2.057-3.707-2.057-6.527c0-1.766.33-3.313.99-4.641s1.613-2.352 2.859-3.07 2.713-1.078 4.4-1.078c1.797 0 3.367.328 4.711.984l-.844 1.711c-1.294-.608-2.591-.913-3.888-.913zM51.917 338.8h-2.414l-7.922-8.684v8.684h-1.992v-17.133h1.992v8.297l7.723-8.297h2.285l-7.582 8.32 7.91 8.813zm5.834.234c-.867 0-1.629-.117-2.285-.352v-1.945a5.23 5.23 0 0 0 2.215.504c.859 0 1.549-.197 2.068-.592s1.037-1.135 1.553-2.221l-6.668-12.762h2.203l5.063 9.738c.195.383.348.758.457 1.125h.094c.219-.656.371-1.07.457-1.242l4.207-9.621h2.109l-5.473 12.258c-.656 1.461-1.248 2.523-1.775 3.188s-1.121 1.15-1.781 1.459-1.475.463-2.444.463zm23.564-15.832c-1.883 0-3.369.627-4.459 1.881s-1.635 2.971-1.635 5.15c0 2.242.525 3.975 1.576 5.197s2.549 1.834 4.494 1.834c1.195 0 2.559-.215 4.09-.645v1.746c-1.188.445-2.652.668-4.395.668-2.523 0-4.471-.766-5.842-2.297s-2.057-3.707-2.057-6.527c0-1.766.33-3.313.99-4.641s1.613-2.352 2.859-3.07 2.713-1.078 4.4-1.078c1.797 0 3.367.328 4.711.984l-.844 1.711c-1.294-.608-2.591-.913-3.888-.913zm17.54 0c-1.883 0-3.369.627-4.459 1.881s-1.635 2.971-1.635 5.15c0 2.242.525 3.975 1.576 5.197s2.549 1.834 4.494 1.834c1.195 0 2.559-.215 4.09-.645v1.746c-1.188.445-2.652.668-4.395.668-2.523 0-4.471-.766-5.842-2.297s-2.057-3.707-2.057-6.527c0-1.766.33-3.313.99-4.641s1.613-2.352 2.859-3.07 2.713-1.078 4.4-1.078c1.797 0 3.367.328 4.711.984l-.844 1.711c-1.294-.608-2.591-.913-3.888-.913zm15.478 15.598h-1.992v-15.363h-5.426v-1.77h12.844v1.77h-5.426V338.8zm10.404-17.133h4.84c2.273 0 3.918.34 4.934 1.02s1.523 1.754 1.523 3.223c0 1.016-.283 1.854-.85 2.514s-1.393 1.088-2.479 1.283v.117c2.602.445 3.902 1.813 3.902 4.102 0 1.531-.518 2.727-1.553 3.586s-2.482 1.289-4.342 1.289h-5.977v-17.134zm1.992 7.336h3.281c1.406 0 2.418-.221 3.035-.662s.926-1.186.926-2.232c0-.961-.344-1.654-1.031-2.08s-1.781-.639-3.281-.639h-2.93v5.613zm0 1.687v6.41h3.574c1.383 0 2.424-.268 3.123-.803s1.049-1.373 1.049-2.514c0-1.063-.357-1.844-1.072-2.344s-1.803-.75-3.264-.75h-3.41zm25.51 8.11h-9.551v-17.133h9.551v1.77h-7.559v5.52h7.102v1.758h-7.102v6.305h7.559v1.78zm19.204 0h-1.992v-8.063h-9.023v8.063h-1.992v-17.133h1.992v7.289h9.023v-7.289h1.992V338.8zm20.108 0h-1.992v-8.063h-9.023v8.063h-1.992v-17.133h1.992v7.289h9.023v-7.289h1.992V338.8zm21.97-8.59c0 2.742-.693 4.898-2.08 6.469s-3.314 2.355-5.783 2.355c-2.523 0-4.471-.771-5.842-2.314s-2.057-3.721-2.057-6.533c0-2.789.688-4.951 2.063-6.486s3.328-2.303 5.859-2.303c2.461 0 4.383.781 5.766 2.344s2.074 3.718 2.074 6.468zm-13.652 0c0 2.32.494 4.08 1.482 5.279s2.424 1.799 4.307 1.799c1.898 0 3.332-.598 4.301-1.793s1.453-2.957 1.453-5.285c0-2.305-.482-4.053-1.447-5.244s-2.393-1.787-4.283-1.787c-1.898 0-3.342.6-4.33 1.799s-1.483 2.943-1.483 5.232zm29.423-8.543v1.793h-7.559v15.34h-1.992v-17.133h9.551zm20.201 8.543c0 2.742-.693 4.898-2.08 6.469s-3.314 2.355-5.783 2.355c-2.523 0-4.471-.771-5.842-2.314s-2.057-3.721-2.057-6.533c0-2.789.688-4.951 2.063-6.486s3.328-2.303 5.859-2.303c2.461 0 4.383.781 5.766 2.344s2.074 3.718 2.074 6.468zm-13.652 0c0 2.32.494 4.08 1.482 5.279s2.424 1.799 4.307 1.799c1.898 0 3.332-.598 4.301-1.793s1.453-2.957 1.453-5.285c0-2.305-.482-4.053-1.447-5.244s-2.393-1.787-4.283-1.787c-1.898 0-3.342.6-4.33 1.799s-1.483 2.943-1.483 5.232zM13.684 367.6H11.27l-7.922-8.684v8.684H1.355v-17.133h1.992v8.297l7.723-8.297h2.285l-7.582 8.32 7.911 8.813zm15.524 0l-2.133-5.449h-6.867l-2.109 5.449h-2.016l6.773-17.203h1.676L31.27 367.6h-2.062zm-2.753-7.243l-1.992-5.309a28.536 28.536 0 0 1-.797-2.473c-.172.75-.418 1.574-.738 2.473l-2.016 5.309h5.543zm17.153 7.243l-5.813-15.188h-.094c.109 1.203.164 2.633.164 4.289V367.6h-1.84v-17.133h3l5.426 14.133h.094l5.473-14.133h2.977V367.6h-1.992v-11.039c0-1.266.055-2.641.164-4.125h-.094L45.214 367.6h-1.606zm29.495 0H71.11v-8.063h-9.023v8.063h-1.992v-17.133h1.992v7.289h9.023v-7.289h1.992V367.6zm12.185-7.149l-4.488 7.148h-2.355l4.805-7.488c-1.258-.398-2.172-1.002-2.742-1.811s-.855-1.83-.855-3.064c0-1.531.529-2.709 1.588-3.533s2.662-1.236 4.811-1.236h4.711V367.6h-1.992v-7.148h-3.483zm3.48-8.262h-2.66c-1.43 0-2.516.246-3.258.738s-1.113 1.293-1.113 2.402c0 2.273 1.48 3.41 4.441 3.41h2.59v-6.55z" fill="#D1A32A"/></symbol><symbol viewBox="0 0 550.795 550.795" id="mail" xmlns="http://www.w3.org/2000/svg"><path d="M501.613 491.782c12.381 0 23.109-4.088 32.229-12.16L377.793 323.567a2878.213 2878.213 0 0 0-10.801 7.767c-11.678 8.604-21.156 15.318-28.434 20.129-7.277 4.822-16.959 9.737-29.045 14.755-12.094 5.024-23.361 7.528-33.813 7.528h-.612c-10.453 0-21.72-2.503-33.813-7.528-12.093-5.018-21.775-9.933-29.045-14.755-7.277-4.811-16.75-11.524-28.434-20.129a1351.934 1351.934 0 0 0-10.771-7.809L16.946 479.622c9.119 8.072 19.854 12.16 32.234 12.16h452.433zM31.047 225.299C19.37 217.514 9.015 208.598 0 198.555V435.98l137.541-137.541c-27.516-19.21-62.969-43.562-106.494-73.14zm489.012 0c-41.865 28.336-77.447 52.73-106.75 73.195l137.486 137.492V198.555c-8.815 9.841-19.059 18.751-30.736 26.744z"/><path d="M501.613 59.013H49.181c-15.784 0-27.919 5.33-36.42 15.979C4.253 85.646.006 98.97.006 114.949c0 12.907 5.636 26.892 16.903 41.959 11.267 15.061 23.256 26.891 35.961 35.496 6.965 4.921 27.969 19.523 63.012 43.801a20367.497 20367.497 0 0 1 49.505 34.395 8855.122 8855.122 0 0 1 31.022 21.701c.985.691 2.534 1.799 4.59 3.269 2.215 1.591 5.018 3.61 8.476 6.107 6.659 4.816 12.191 8.709 16.597 11.683 4.4 2.975 9.731 6.298 15.985 9.988 6.249 3.685 12.143 6.456 17.675 8.299 5.533 1.842 10.655 2.766 15.367 2.766h.612c4.711 0 9.834-.924 15.368-2.766 5.531-1.843 11.42-4.608 17.674-8.299 6.248-3.69 11.572-7.02 15.986-9.988 4.406-2.974 9.938-6.866 16.598-11.683 3.451-2.497 6.254-4.517 8.469-6.102a643.575 643.575 0 0 1 4.596-3.274c6.684-4.651 17.1-11.892 31.104-21.616 25.482-17.705 63.01-43.764 112.742-78.281 14.957-10.447 27.453-23.054 37.496-37.803 10.025-14.749 15.051-30.22 15.051-46.408 0-13.525-4.873-25.098-14.598-34.737-9.736-9.627-21.265-14.443-34.584-14.443z"/></symbol><symbol viewBox="0 0 512 512" id="map" xmlns="http://www.w3.org/2000/svg"><path d="M256 0C153.755 0 70.573 83.182 70.573 185.426c0 126.888 165.939 313.167 173.004 321.035 6.636 7.391 18.222 7.378 24.846 0 7.065-7.868 173.004-194.147 173.004-321.035C441.425 83.182 358.244 0 256 0zm0 278.719c-51.442 0-93.292-41.851-93.292-93.293S204.559 92.134 256 92.134s93.291 41.851 93.291 93.293-41.85 93.292-93.291 93.292z"/></symbol><symbol viewBox="0 0 341.333 341.333" id="menu" xmlns="http://www.w3.org/2000/svg"><path d="M0 277.333h341.333V320H0zm0-128h341.333V192H0zm0-128h341.333V64H0z"/></symbol><symbol viewBox="0 0 95.481 95.481" id="ok" xmlns="http://www.w3.org/2000/svg"><path d="M43.041 67.254c-7.402-.772-14.076-2.595-19.79-7.064-.709-.556-1.441-1.092-2.088-1.713-2.501-2.402-2.753-5.153-.774-7.988 1.693-2.426 4.535-3.075 7.489-1.682.572.27 1.117.607 1.639.969 10.649 7.317 25.278 7.519 35.967.329 1.059-.812 2.191-1.474 3.503-1.812 2.551-.655 4.93.282 6.299 2.514 1.564 2.549 1.544 5.037-.383 7.016-2.956 3.034-6.511 5.229-10.461 6.761-3.735 1.448-7.826 2.177-11.875 2.661.611.665.899.992 1.281 1.376 5.498 5.524 11.02 11.025 16.5 16.566 1.867 1.888 2.257 4.229 1.229 6.425-1.124 2.4-3.64 3.979-6.107 3.81-1.563-.108-2.782-.886-3.865-1.977-4.149-4.175-8.376-8.273-12.441-12.527-1.183-1.237-1.752-1.003-2.796.071-4.174 4.297-8.416 8.528-12.683 12.735-1.916 1.889-4.196 2.229-6.418 1.15-2.362-1.145-3.865-3.556-3.749-5.979.08-1.639.886-2.891 2.011-4.014 5.441-5.433 10.867-10.88 16.295-16.322.359-.362.694-.746 1.217-1.305z"/><path d="M47.55 48.329c-13.205-.045-24.033-10.992-23.956-24.218C23.67 10.739 34.505-.037 47.84 0c13.362.036 24.087 10.967 24.02 24.478-.068 13.199-10.971 23.897-24.31 23.851zm12.001-24.186c-.023-6.567-5.253-11.795-11.807-11.801-6.609-.007-11.886 5.316-11.835 11.943.049 6.542 5.324 11.733 11.896 11.709 6.552-.023 11.768-5.285 11.746-11.851z"/></symbol><symbol viewBox="0 0 480.56 480.56" id="phone" xmlns="http://www.w3.org/2000/svg"><path d="M365.354 317.9c-15.7-15.5-35.3-15.5-50.9 0-11.9 11.8-23.8 23.6-35.5 35.6-3.2 3.3-5.9 4-9.8 1.8-7.7-4.2-15.9-7.6-23.3-12.2-34.5-21.7-63.4-49.6-89-81-12.7-15.6-24-32.3-31.9-51.1-1.6-3.8-1.3-6.3 1.8-9.4 11.9-11.5 23.5-23.3 35.2-35.1 16.3-16.4 16.3-35.6-.1-52.1-9.3-9.4-18.6-18.6-27.9-28-9.6-9.6-19.1-19.3-28.8-28.8-15.7-15.3-35.3-15.3-50.9.1-12 11.8-23.5 23.9-35.7 35.5-11.3 10.7-17 23.8-18.2 39.1-1.9 24.9 4.2 48.4 12.8 71.3 17.6 47.4 44.4 89.5 76.9 128.1 43.9 52.2 96.3 93.5 157.6 123.3 27.6 13.4 56.2 23.7 87.3 25.4 21.4 1.2 40-4.2 54.9-20.9 10.2-11.4 21.7-21.8 32.5-32.7 16-16.2 16.1-35.8.2-51.8-19-19.1-38.1-38.1-57.2-57.1zm-19.1-79.7l36.9-6.3c-5.8-33.9-21.8-64.6-46.1-89-25.7-25.7-58.2-41.9-94-46.9l-5.2 37.1c27.7 3.9 52.9 16.4 72.8 36.3 18.8 18.8 31.1 42.6 35.6 68.8zm57.7-160.4c-42.6-42.6-96.5-69.5-156-77.8l-5.2 37.1c51.4 7.2 98 30.5 134.8 67.2 34.9 34.9 57.8 79 66.1 127.5l36.9-6.3c-9.7-56.2-36.2-107.2-76.6-147.7z"/></symbol><symbol viewBox="0 0 480.56 480.56" id="phone-call" xmlns="http://www.w3.org/2000/svg"><path d="M365.354 317.9c-15.7-15.5-35.3-15.5-50.9 0-11.9 11.8-23.8 23.6-35.5 35.6-3.2 3.3-5.9 4-9.8 1.8-7.7-4.2-15.9-7.6-23.3-12.2-34.5-21.7-63.4-49.6-89-81-12.7-15.6-24-32.3-31.9-51.1-1.6-3.8-1.3-6.3 1.8-9.4 11.9-11.5 23.5-23.3 35.2-35.1 16.3-16.4 16.3-35.6-.1-52.1-9.3-9.4-18.6-18.6-27.9-28-9.6-9.6-19.1-19.3-28.8-28.8-15.7-15.3-35.3-15.3-50.9.1-12 11.8-23.5 23.9-35.7 35.5-11.3 10.7-17 23.8-18.2 39.1-1.9 24.9 4.2 48.4 12.8 71.3 17.6 47.4 44.4 89.5 76.9 128.1 43.9 52.2 96.3 93.5 157.6 123.3 27.6 13.4 56.2 23.7 87.3 25.4 21.4 1.2 40-4.2 54.9-20.9 10.2-11.4 21.7-21.8 32.5-32.7 16-16.2 16.1-35.8.2-51.8-19-19.1-38.1-38.1-57.2-57.1zm-19.1-79.7l36.9-6.3c-5.8-33.9-21.8-64.6-46.1-89-25.7-25.7-58.2-41.9-94-46.9l-5.2 37.1c27.7 3.9 52.9 16.4 72.8 36.3 18.8 18.8 31.1 42.6 35.6 68.8zm57.7-160.4c-42.6-42.6-96.5-69.5-156-77.8l-5.2 37.1c51.4 7.2 98 30.5 134.8 67.2 34.9 34.9 57.8 79 66.1 127.5l36.9-6.3c-9.7-56.2-36.2-107.2-76.6-147.7z"/></symbol><symbol viewBox="0 0 41.999 41.999" id="play-button" xmlns="http://www.w3.org/2000/svg"><path d="M36.068 20.176l-29-20A1 1 0 1 0 5.5.999v40a1 1 0 0 0 1.568.823l29-20a.999.999 0 0 0 0-1.646z" fill="#FFF"/></symbol><symbol viewBox="0 0 488.027 488.027" id="price" xmlns="http://www.w3.org/2000/svg"><g fill="#FFF"><circle cx="179.163" cy="202.563" r="20.4"/><circle cx="308.763" cy="285.363" r="20.4"/><path d="M476.963 270.963l-7.4-10.1c-8-11-8.2-25.9-.3-37.1l7.2-10.2c11-15.6 5.9-37.3-11-46.4l-11-5.9c-12-6.4-18.6-19.8-16.3-33.3l2.1-12.3c3.2-18.8-10.9-36.2-30-37l-12.5-.5c-13.6-.6-25.4-9.8-29.2-22.9l-3.5-12c-5.3-18.4-25.5-27.9-43.1-20.3l-11.5 4.9c-12.5 5.4-27.1 2.2-36.2-8l-8.3-9.3c-12.7-14.2-35-14.1-47.6.4l-8.2 9.4c-9 10.3-23.5 13.7-36.1 8.5l-11.6-4.8c-17.7-7.3-37.7 2.6-42.8 21l-3.3 12.1c-3.6 13.2-15.2 22.6-28.8 23.3l-12.5.7c-19.1 1.1-32.9 18.7-29.4 37.5l2.3 12.3c2.5 13.4-3.9 26.9-15.8 33.5l-10.9 6.1c-16.7 9.3-21.5 31.1-10.2 46.5l7.4 10.1c8 11 8.2 25.9.3 37.1l-7.2 10.2c-11 15.6-5.9 37.3 11 46.4l11 5.9c12 6.4 18.6 19.8 16.3 33.3l-2.1 12.3c-3.2 18.8 10.9 36.2 30 37l12.5.5c13.6.6 25.4 9.8 29.2 22.9l3.5 12c5.3 18.4 25.5 27.9 43.1 20.3l11.5-4.9c12.5-5.4 27.1-2.2 36.2 8l8.3 9.3c12.8 14.2 35.1 14.1 47.6-.4l8.2-9.4c9-10.3 23.5-13.7 36.1-8.5l11.6 4.8c17.7 7.3 37.7-2.6 42.8-21l3.3-12.1c3.6-13.2 15.2-22.6 28.8-23.3l12.5-.7c19.1-1.1 32.9-18.7 29.4-37.5l-2.3-12.3c-2.5-13.4 3.9-26.9 15.8-33.5l10.9-6.1c16.7-9.2 21.5-31 10.2-46.5zm-347.1-68.4c0-27.2 22-49.2 49.2-49.2s49.2 22 49.2 49.2-22 49.2-49.2 49.2-49.2-22.1-49.2-49.2zm58.7 126.9c-4.2 5.1-11.8 5.8-16.9 1.6-5.1-4.2-5.8-11.8-1.6-16.9l129.1-155.5c4.2-5.1 11.8-5.8 16.9-1.6s5.8 11.8 1.6 16.9l-129.1 155.5zm120.2 5.1c-27.2 0-49.2-22-49.2-49.2s22-49.2 49.2-49.2 49.2 22 49.2 49.2-22 49.2-49.2 49.2z"/></g></symbol><symbol viewBox="0 0 492.004 492.004" id="right-arrow" xmlns="http://www.w3.org/2000/svg"><path d="M382.678 226.804L163.73 7.86C158.666 2.792 151.906 0 144.698 0s-13.968 2.792-19.032 7.86l-16.124 16.12c-10.492 10.504-10.492 27.576 0 38.064L293.398 245.9l-184.06 184.06c-5.064 5.068-7.86 11.824-7.86 19.028 0 7.212 2.796 13.968 7.86 19.04l16.124 16.116c5.068 5.068 11.824 7.86 19.032 7.86s13.968-2.792 19.032-7.86L382.678 265c5.076-5.084 7.864-11.872 7.848-19.088.016-7.244-2.772-14.028-7.848-19.108z" fill="#FFF"/></symbol><symbol viewBox="0 0 510.127 510.127" id="ruble" xmlns="http://www.w3.org/2000/svg"><path d="M34.786 428.963h81.158v69.572c0 3.385 1.083 6.156 3.262 8.322 2.173 2.18 4.951 3.27 8.335 3.27h60.502c3.14 0 5.857-1.09 8.152-3.27 2.295-2.166 3.439-4.938 3.439-8.322v-69.572h182.964c3.377 0 6.156-1.076 8.334-3.256 2.18-2.178 3.262-4.951 3.262-8.336v-46.377c0-3.365-1.082-6.156-3.262-8.322-2.172-2.18-4.957-3.27-8.334-3.27h-182.97v-42.754h123.184c48.305 0 87.73-14.719 118.293-44.199 30.551-29.449 45.834-67.49 45.834-114.125 0-46.604-15.283-84.646-45.834-114.125C410.548 14.749 371.116 0 322.812 0H127.535c-3.385 0-6.157 1.089-8.335 3.256-2.173 2.179-3.262 4.969-3.262 8.335v227.896H34.786c-3.384 0-6.157 1.145-8.335 3.439-2.172 2.295-3.262 5.012-3.262 8.151v53.978c0 3.385 1.083 6.158 3.262 8.336 2.179 2.18 4.945 3.256 8.335 3.256h81.158v42.754H34.786c-3.384 0-6.157 1.09-8.335 3.27-2.172 2.166-3.262 4.951-3.262 8.322v46.377c0 3.385 1.083 6.158 3.262 8.336 2.178 2.181 4.95 3.257 8.335 3.257zM199.628 77.179h115.938c25.6 0 46.248 7.485 61.953 22.46 15.697 14.976 23.549 34.547 23.549 58.691 0 24.156-7.852 43.733-23.549 58.691-15.705 14.988-36.354 22.473-61.953 22.473H199.628V77.179z"/></symbol><symbol viewBox="0 0 474.521 474.521" id="shield" xmlns="http://www.w3.org/2000/svg"><path d="M237.263 60.498c-4.65 3.535-68.417 50.977-150.197 67.352-10.781 188.716 150.095 286.419 150.197 286.363.102.056 160.979-97.646 150.198-286.368-81.785-16.37-150.198-67.347-150.198-67.347z"/><path d="M440.632 97.439a12.618 12.618 0 0 0-10.117-11.649C330.787 65.828 245.64 3.124 244.8 2.498a12.6 12.6 0 0 0-15.167.08c-3.358 2.554-83.385 62.755-185.621 83.218a12.62 12.62 0 0 0-10.121 11.65c-8.192 143.403 59.091 246.563 116.98 307.845 21.724 23.005 42.109 40.01 55.386 50.221 7.617 5.855 13.769 10.156 17.585 12.733 7.127 4.82 9.178 6.2 13.11 6.271.164.006.325.006.481.006 3.88 0 6.221-1.565 12.394-5.702 3.343-2.244 8.758-5.98 15.504-11.084 11.753-8.872 29.925-23.641 49.779-43.63 37.301-37.549 66.997-79.36 88.25-124.264 28.578-60.361 41.119-125.094 37.272-192.403zM330.16 359.379c-38.295 48.021-77.872 77.274-92.897 87.491-15.022-10.217-54.599-39.464-92.909-87.514-59.926-75.164-88.739-159.527-85.713-250.893 86.318-19.494 156.141-64.586 178.688-80.349 22.851 15.74 93.877 61.128 178.554 80.342 3.027 91.378-25.784 175.754-85.723 250.923z"/></symbol><symbol viewBox="0 0 512 512" id="site" xmlns="http://www.w3.org/2000/svg"><path d="M477.858 8.533H34.142C15.317 8.533 0 23.851 0 42.675v281.591a8.536 8.536 0 0 0 8.533 8.533h494.933a8.536 8.536 0 0 0 8.533-8.533V42.675C512 23.851 496.683 8.533 477.858 8.533zm17.075 307.2H17.067V42.675c0-9.421 7.663-17.075 17.075-17.075h443.716c9.412 0 17.075 7.654 17.075 17.075v273.058z"/><path d="M503.467 315.733H8.533A8.536 8.536 0 0 0 0 324.266v42.658c0 18.825 15.317 34.142 34.142 34.142h443.716c18.825 0 34.142-15.317 34.142-34.142v-42.658a8.536 8.536 0 0 0-8.533-8.533zm-8.534 51.192c0 9.421-7.663 17.075-17.075 17.075H34.142c-9.412 0-17.075-7.654-17.075-17.075V332.8h477.867v34.125z"/><path d="M281.6 349.867h-51.2c-4.71 0-8.533 3.823-8.533 8.533s3.823 8.533 8.533 8.533h51.2c4.71 0 8.533-3.823 8.533-8.533s-3.823-8.533-8.533-8.533zm187.733-307.2H42.667a8.536 8.536 0 0 0-8.533 8.533v273.067a8.536 8.536 0 0 0 8.533 8.533h426.667a8.536 8.536 0 0 0 8.533-8.533V51.2c0-4.71-3.823-8.533-8.534-8.533zM460.8 315.733H51.2v-256h409.6v256zm-93.867 136.534H145.067c-14.114 0-25.6 11.486-25.6 25.6s11.486 25.6 25.6 25.6h221.867c14.114 0 25.6-11.486 25.6-25.6s-11.487-25.6-25.601-25.6zm0 34.133H145.067c-4.71 0-8.533-3.831-8.533-8.533s3.823-8.533 8.533-8.533h221.867c4.71 0 8.533 3.831 8.533 8.533s-3.823 8.533-8.534 8.533z"/><path d="M349.867 452.267c-28.314 0-42.667-20.096-42.667-59.733a8.536 8.536 0 0 0-8.533-8.533h-85.333a8.536 8.536 0 0 0-8.533 8.533c0 39.637-14.353 59.733-42.667 59.733a8.536 8.536 0 0 0-8.533 8.533 8.536 8.536 0 0 0 8.533 8.533h187.733a8.536 8.536 0 0 0 8.533-8.533 8.536 8.536 0 0 0-8.533-8.533zm-146.168 0c10.505-11.639 16.691-28.971 17.937-51.2h68.736c1.237 22.229 7.424 39.561 17.937 51.2h-104.61zm204.058-192.308l-20.599-20.599 11.46-11.46a8.542 8.542 0 0 0 2.244-8.124 8.543 8.543 0 0 0-5.82-6.084l-85.333-25.6a8.52 8.52 0 0 0-8.482 2.142 8.508 8.508 0 0 0-2.142 8.482l25.6 85.333a8.525 8.525 0 0 0 6.084 5.828c2.901.717 5.999-.12 8.124-2.244l12.066-12.075 20.599 20.608c1.596 1.604 3.772 2.5 6.033 2.5s4.437-.896 6.033-2.5l24.132-24.141a8.524 8.524 0 0 0 .001-12.066zm-30.166 18.108l-18.756-18.765a11.1 11.1 0 0 0-7.876-3.26 11.13 11.13 0 0 0-7.876 3.251l-6.161 6.161-16.939-56.465 56.465 16.939-6.605 6.605a9.61 9.61 0 0 0-2.816 6.827 9.568 9.568 0 0 0 2.833 6.835l19.797 19.797-12.066 12.075zM358.4 76.8H119.467a8.536 8.536 0 0 0-8.533 8.533V128a8.536 8.536 0 0 0 8.533 8.533H358.4a8.536 8.536 0 0 0 8.533-8.533V85.333A8.536 8.536 0 0 0 358.4 76.8zm-8.533 42.667H128v-25.6h221.867v25.6zm-128 51.2H153.6a8.536 8.536 0 0 0-8.533 8.533v34.133a8.536 8.536 0 0 0 8.533 8.533h68.267a8.536 8.536 0 0 0 8.533-8.533V179.2a8.536 8.536 0 0 0-8.533-8.533zm-8.534 34.133h-51.2v-17.067h51.2V204.8z"/><path d="M358.4 76.8H119.467a8.536 8.536 0 0 0-8.533 8.533v162.133a8.536 8.536 0 0 0 8.533 8.533h203.145a8.5 8.5 0 0 0 6.844-3.439 8.533 8.533 0 0 0 1.331-7.552l-10.803-36.019 35.968 10.795a8.51 8.51 0 0 0 7.543-1.331 8.512 8.512 0 0 0 3.439-6.844V85.333c-.001-4.71-3.824-8.533-8.534-8.533zm-8.533 123.341L309.7 188.092a8.52 8.52 0 0 0-8.482 2.142 8.524 8.524 0 0 0-2.142 8.491l12.066 40.209H128V93.867h221.867v106.274z"/></symbol><symbol viewBox="0 0 512 512" id="site-map" xmlns="http://www.w3.org/2000/svg"><path d="M497 361h-46v-75c0-8.291-6.709-15-15-15H271v-60h105c8.291 0 15-6.709 15-15V15c0-8.291-6.709-15-15-15H136c-8.291 0-15 6.709-15 15v181c0 8.291 6.709 15 15 15h105v60H76c-8.291 0-15 6.709-15 15v75H15c-8.291 0-15 6.709-15 15v121c0 8.291 6.709 15 15 15h121c8.291 0 15-6.709 15-15V376c0-8.291-6.709-15-15-15H91v-60h150v60h-45c-8.291 0-15 6.709-15 15v121c0 8.291 6.709 15 15 15h120c8.291 0 15-6.709 15-15V376c0-8.291-6.709-15-15-15h-45v-60h150v60h-45c-8.291 0-15 6.709-15 15v121c0 8.291 6.709 15 15 15h121c8.291 0 15-6.709 15-15V376c0-8.291-6.709-15-15-15zM196 61h120c8.291 0 15 6.709 15 15s-6.709 15-15 15H196c-8.291 0-15-6.709-15-15s6.709-15 15-15zm0 90c-8.291 0-15-6.709-15-15s6.709-15 15-15h120c8.291 0 15 6.709 15 15s-6.709 15-15 15H196z" fill="#FFF"/></symbol><symbol viewBox="0 0 49.94 49.94" id="star" xmlns="http://www.w3.org/2000/svg"><path d="M48.856 22.73a3.56 3.56 0 0 0 .906-3.671 3.56 3.56 0 0 0-2.892-2.438l-12.092-1.757a1.58 1.58 0 0 1-1.19-.865L28.182 3.043a3.56 3.56 0 0 0-3.212-1.996 3.56 3.56 0 0 0-3.211 1.996L16.352 14c-.23.467-.676.79-1.191.865L3.069 16.622A3.56 3.56 0 0 0 .177 19.06a3.56 3.56 0 0 0 .906 3.671l8.749 8.528c.373.364.544.888.456 1.4L8.224 44.701a3.506 3.506 0 0 0 .781 2.904c1.066 1.267 2.927 1.653 4.415.871l10.814-5.686a1.619 1.619 0 0 1 1.472 0l10.815 5.686a3.544 3.544 0 0 0 1.666.417c1.057 0 2.059-.47 2.748-1.288a3.505 3.505 0 0 0 .781-2.904l-2.065-12.042a1.582 1.582 0 0 1 .456-1.4l8.749-8.529z" fill="#efce4a"/></symbol><symbol viewBox="0 0 451.847 451.846" id="totop" xmlns="http://www.w3.org/2000/svg"><path d="M248.292 106.406l194.281 194.29c12.365 12.359 12.365 32.391 0 44.744-12.354 12.354-32.391 12.354-44.744 0L225.923 173.529 54.018 345.44c-12.36 12.354-32.395 12.354-44.748 0-12.359-12.354-12.359-32.391 0-44.75L203.554 106.4c6.18-6.174 14.271-9.259 22.369-9.259 8.095 0 16.192 3.091 22.369 9.265z" fill="#FFF"/></symbol><symbol viewBox="0 0 31.793 31.793" id="trophy" xmlns="http://www.w3.org/2000/svg"><path d="M15.553 21.674a1.22 1.22 0 0 1-.357.133 1.79 1.79 0 0 1-.402.031v.693h.926v2.373h.998V21.04h-.781a.799.799 0 0 1-.119.384.856.856 0 0 1-.265.25zM2.07 15.716s.404-.884-.215-1.832c-.619-.95-1.589-1.138-1.589-1.138s-.446 1.045.159 1.97c.602.925 1.645 1 1.645 1zm1.735.152s.994-.319 1.362-1.361c.367-1.044-.314-1.952-.314-1.952s-.896.413-1.274 1.482a1.997 1.997 0 0 0 .226 1.831zm.383 1.174c-.234 1.11.463 1.787.463 1.787s.945-.448 1.173-1.528c.227-1.082-.567-1.894-.567-1.894s-.834.525-1.069 1.635zm2.202 3.729s.898-.533 1.023-1.631c.126-1.099-.742-1.832-.742-1.832s-.781.602-.912 1.73a1.988 1.988 0 0 0 .631 1.733zm2.297 1.833s.707-.771.511-1.858c-.198-1.088-1.24-1.542-1.24-1.542s-.575.802-.374 1.919a2 2 0 0 0 1.103 1.481zm-5.793-9.193s.827-.509.838-1.644c.011-1.134-.69-1.828-.69-1.828s-.952.621-.963 1.728c-.012 1.104.815 1.744.815 1.744zm-.289 4.583s.125-.962-.746-1.688c-.873-.724-1.854-.618-1.854-.618s-.118 1.13.731 1.837c.851.705 1.869.469 1.869.469zm1.294 2.164s-.092-.969-1.103-1.48c-1.012-.514-1.945-.19-1.945-.19s.136 1.128 1.122 1.628c.985.498 1.926.042 1.926.042zm.088.588c-1.12-.184-1.911.406-1.911.406s.471 1.033 1.561 1.213c1.091.178 1.85-.542 1.85-.542s-.381-.893-1.5-1.077zm2.182 1.764c-1.132-.048-1.849.631-1.849.631s.591.972 1.696 1.019c1.104.046 1.77-.759 1.77-.759s-.483-.844-1.617-.891z"/><path d="M3.153 14.024l-.528-.121c-.013.058-1.229 5.794 6.975 10.024l.248-.48c-7.809-4.027-6.744-9.205-6.695-9.423z"/><path d="M21.182 25.729h-.518V19.92h.518v-.851h-.629v-.593s-4.168-.775-4.168-2.502c0-.565.515-1.187 1.193-1.998l.169.472 1.113-.401-.068-.191c1.823.106 3.333-.378 4.505-1.444 2.921-2.661 2.598-7.969 2.582-8.193l-.037-.552H22.44l.177.73c.075.318.041.579-.112.82-.366.576-1.315.884-1.651.953h-.002c.004-.222.003-.448-.002-.679h.813v-.936h-5.766v-.006H10.13v.937h.813c-.005.23-.006.457-.002.679h-.002c-.335-.069-1.285-.377-1.651-.953-.152-.242-.187-.503-.112-.822l.176-.73h-3.4l-.037.552c-.016.224-.339 5.532 2.582 8.193 1.172 1.066 2.682 1.551 4.505 1.444l-.069.191 1.114.401.169-.472c.678.812 1.193 1.433 1.193 1.998 0 1.727-4.168 2.503-4.168 2.503v.592h-.629v.851h.518v5.81h-.518v.963h-.37v1.441h5.654v.006h5.656v-1.441h-.37v-.963zM20.74 7.662h.823V7.2c.557-.182 1.448-.578 1.938-1.345.195-.308.307-.647.332-1.006h.878c-.003 1.356-.214 4.869-2.213 6.688-.972.883-2.271 1.254-3.867 1.115.895-1.22 1.79-2.803 2.109-4.99zm-11.445 3.87c-2-1.819-2.21-5.332-2.213-6.688h.878c.024.358.137.698.332 1.006.489.767 1.381 1.163 1.937 1.345v.462h.824c.319 2.188 1.213 3.771 2.11 4.991-1.598.138-2.895-.233-3.868-1.116zm10.48 14.197h-3.878v-.006h-3.88v-5.586h3.878v.006h3.88v5.586zm9.948-10.007s1.042-.074 1.646-1c.604-.925.158-1.97.158-1.97s-.97.188-1.589 1.138c-.621.948-.215 1.832-.215 1.832zm-1.736.152s.604-.761.228-1.831c-.378-1.07-1.274-1.483-1.274-1.483s-.682.908-.313 1.952c.366 1.043 1.359 1.362 1.359 1.362zm-.846 2.961s.697-.677.463-1.786a2.689 2.689 0 0 0-1.068-1.636s-.794.812-.567 1.894c.226 1.08 1.172 1.528 1.172 1.528zm-2.018-1.521s-.868.734-.742 1.832c.125 1.098 1.022 1.632 1.022 1.632s.759-.607.631-1.734c-.131-1.128-.911-1.73-.911-1.73z"/><path d="M22.596 20.751c-.196 1.089.511 1.858.511 1.858s.901-.364 1.103-1.48c.201-1.117-.374-1.919-.374-1.919s-1.044.454-1.24 1.541zm6.303-7.334s.826-.64.814-1.744c-.011-1.106-.962-1.728-.962-1.728s-.702.694-.69 1.828a1.996 1.996 0 0 0 .838 1.644zm2.889 2.277s-.981-.105-1.854.618c-.872.726-.746 1.688-.746 1.688s1.019.237 1.869-.469c.848-.707.731-1.837.731-1.837zm-2.791 2.99c-1.012.512-1.104 1.479-1.104 1.479s.94.456 1.926-.044 1.122-1.628 1.122-1.628-.933-.321-1.944.193zm-1.191 2.068c-1.119.184-1.5 1.077-1.5 1.077s.759.72 1.85.542c1.091-.179 1.562-1.213 1.562-1.213s-.793-.589-1.912-.406zm-3.8 2.653s.666.805 1.77.759c1.104-.047 1.696-1.018 1.696-1.018s-.717-.68-1.849-.633a2.004 2.004 0 0 0-1.617.892z"/><path d="M29.167 13.909l-.528.121c.049.218 1.116 5.396-6.695 9.423l.248.48c8.204-4.23 6.988-9.966 6.975-10.024z"/></symbol><symbol viewBox="0 0 304.36 304.36" id="vk" xmlns="http://www.w3.org/2000/svg"><path d="M261.945 175.576c10.096 9.857 20.752 19.131 29.807 29.982 4 4.822 7.787 9.798 10.684 15.394 4.105 7.955.387 16.709-6.746 17.184l-44.34-.02c-11.436.949-20.559-3.655-28.23-11.474-6.139-6.253-11.824-12.908-17.727-19.372-2.42-2.642-4.953-5.128-7.979-7.093-6.053-3.929-11.307-2.726-14.766 3.587-3.523 6.421-4.322 13.531-4.668 20.687-.475 10.441-3.631 13.186-14.119 13.664-22.414 1.057-43.686-2.334-63.447-13.641-17.422-9.968-30.932-24.04-42.691-39.971-22.895-31.021-40.428-65.108-56.186-100.15C-2.01 76.458.584 72.22 9.295 72.07c14.465-.281 28.928-.261 43.41-.02 5.879.086 9.771 3.458 12.041 9.012 7.826 19.243 17.402 37.551 29.422 54.521 3.201 4.518 6.465 9.036 11.113 12.216 5.142 3.521 9.057 2.354 11.476-3.374 1.535-3.632 2.207-7.544 2.553-11.434 1.146-13.383 1.297-26.743-.713-40.079-1.234-8.323-5.922-13.711-14.227-15.286-4.238-.803-3.607-2.38-1.555-4.799 3.564-4.172 6.916-6.769 13.598-6.769h50.111c7.889 1.557 9.641 5.101 10.721 13.039l.043 55.663c-.086 3.073 1.535 12.192 7.07 14.226 4.43 1.448 7.35-2.096 10.008-4.905 11.998-12.734 20.561-27.783 28.211-43.366 3.395-6.852 6.314-13.968 9.143-21.078 2.096-5.276 5.385-7.872 11.328-7.757l48.229.043c1.43 0 2.877.021 4.262.258 8.127 1.385 10.354 4.881 7.844 12.817-3.955 12.451-11.65 22.827-19.174 33.251-8.043 11.129-16.645 21.877-24.621 33.072-7.328 10.223-6.746 15.376 2.357 24.255zm0 0" fill-rule="evenodd" clip-rule="evenodd"/></symbol><symbol viewBox="0 0 512 512" id="wallet" xmlns="http://www.w3.org/2000/svg"><path d="M481.992 90.341V29.945H77.28c-36.685 0-67.463 25.916-74.995 60.396h42.626v30.008H.483L0 392.032h44.911v30.008H1.822c3.121 14.083 10.152 27.023 20.591 37.482 14.506 14.532 33.802 22.534 54.334 22.534H481.99V422.04h-45.044v-30.008h45.044V331.02H374.552v-.001c-41.366 0-75.019-33.654-75.019-75.02 0-41.366 33.654-75.019 75.019-75.019h107.44v-60.632h-45.044V90.341h45.044zM350.831 392.032h56.652v30.008h-56.652v-30.008zM78.901 90.341h56.652v30.008H78.901V90.341zm0 331.699v-30.008h56.652v30.008H78.901zm147.296 0h-56.652v-30.008h56.652v30.008zm0-301.691h-56.652V90.341h56.652v30.008zm90.642 271.683v30.008h-56.652v-30.008h56.652zm.001-271.683h-56.652V90.341h56.652v30.008zm90.643 0h-56.652V90.341h56.652v30.008z"/><path d="M374.552 210.988c-24.82 0-45.012 20.192-45.012 45.012s20.192 45.012 45.012 45.012H512v-90.023H374.552zm3.223 69.307c-13.474 0-24.436-10.962-24.436-24.436s10.962-24.436 24.436-24.436 24.436 10.962 24.436 24.436-10.961 24.436-24.436 24.436z"/></symbol><symbol viewBox="0 0 48 48" id="windows" xmlns="http://www.w3.org/2000/svg"><path d="M22 0H1a1 1 0 0 0-1 1v21a1 1 0 0 0 1 1h21a1 1 0 0 0 1-1V1a1 1 0 0 0-1-1zm-1 21H2V2h19v19zm1 4H1a1 1 0 0 0-1 1v21a1 1 0 0 0 1 1h21a1 1 0 0 0 1-1V26a1 1 0 0 0-1-1zm-1 21H2V27h19v19zm26-21H26a1 1 0 0 0-1 1v21a1 1 0 0 0 1 1h21a1 1 0 0 0 1-1V26a1 1 0 0 0-1-1zm-1 21H27V27h19v19zm1-46H26a1 1 0 0 0-1 1v21a1 1 0 0 0 1 1h21a1 1 0 0 0 1-1V1a1 1 0 0 0-1-1zm-1 21H27V2h19v19z" fill="#d7af47"/></symbol></svg>